#!OML:ASF F:\VICON\USERDATA\INSTALL\rory3\rory3.ASF
:FULLY-SPECIFIED
:DEGREES
1027
root -4.68449 17.638 12.2413 -12.7303 -60.5585 8.13507
lowerback 16.8305 1.38755 -0.207964
upperback 2.87399 1.79494 1.42881
thorax -6.40702 0.849946 1.24864
lowerneck -24.825 -5.2485 -10.0955
upperneck 24.1262 -5.50819 6.51339
head 12.6235 -2.5349 3.17604
rclavicle -4.76089e-014 -3.65764e-014
rhumerus -33.9852 -11.5798 -75.4334
rradius 32.9954
rwrist 4.59026
rhand -19.5059 7.87066
rfingers 7.12502
rthumb 6.81678 -21.9996
lclavicle -4.76089e-014 -3.65764e-014
lhumerus -22.2691 -3.56414 80.4806
lradius 38.6614
lwrist 6.44997
lhand -25.2242 25.3686
lfingers 7.12502
lthumb 1.29503 55.3444
rfemur -22.6964 -3.05772 12.5915
rtibia 36.8458
rfoot -11.5949 -5.55194
rtoes 0.466831
lfemur -2.60252 -4.607 -26.83
ltibia 24.6531
lfoot -11.9124 -0.973232
ltoes -1.10974
1028
root -4.66633 17.6379 12.2281 -12.9041 -60.3764 8.21284
lowerback 16.6198 1.43972 -0.338271
upperback 2.6829 1.85352 1.4774
thorax -6.50428 0.886049 1.36312
lowerneck -24.3612 -5.35626 -10.7822
upperneck 23.9253 -5.60148 7.05671
head 12.5062 -2.57533 3.48448
rclavicle 4.87022e-015 1.27222e-014
rhumerus -34.0633 -11.8236 -75.2222
rradius 32.9564
rwrist 5.02309
rhand -19.5299 7.77752
rfingers 7.12502
rthumb 6.79368 -22.0935
lclavicle 4.87022e-015 1.27222e-014
lhumerus -22.6866 -2.93934 80.5896
lradius 38.1336
lwrist 6.39239
lhand -24.7851 25.4716
lfingers 7.12502
lthumb 1.71914 55.4444
rfemur -22.476 -3.11645 12.5212
rtibia 37.7426
rfoot -11.8513 -6.03009
rtoes -0.039936
lfemur -2.42423 -4.48497 -26.866
ltibia 24.3433
lfoot -11.7415 -1.20724
ltoes -1.37501
1029
root -4.64781 17.6413 12.2184 -13.0175 -60.2285 8.26652
lowerback 16.3163 1.48022 -0.374793
upperback 2.57376 1.90222 1.40942
thorax -6.4556 0.913058 1.30516
lowerneck -24.0707 -5.43822 -11.3283
upperneck 23.6293 -5.78764 7.93153
head 12.4035 -2.59562 3.8788
rclavicle 1.05455e-013 -3.33958e-014
rhumerus -34.1259 -11.7607 -75.3535
rradius 33.1323
rwrist 5.0732
rhand -19.583 7.58665
rfingers 7.12502
rthumb 6.74237 -22.286
lclavicle 1.05455e-013 -3.33958e-014
lhumerus -22.9583 -2.50153 80.509
lradius 37.5597
lwrist 6.06155
lhand -24.4903 25.782
lfingers 7.12502
lthumb 2.00388 55.7523
rfemur -22.2796 -3.18168 12.4386
rtibia 38.6342
rfoot -12.0559 -6.31528
rtoes -0.295256
lfemur -2.3074 -4.32243 -26.8841
ltibia 24.0944
lfoot -11.5816 -1.41167
ltoes -1.66992
1030
root -4.62718 17.6467 12.2065 -12.9185 -60.079 8.07966
lowerback 16.0366 1.464 -0.358257
upperback 2.49582 1.88583 1.37331
thorax -6.38375 0.906655 1.26533
lowerneck -24.0669 -5.42078 -11.3798
upperneck 23.5373 -5.83027 8.24229
head 12.3843 -2.57766 3.99926
rclavicle -1.33285e-013 6.36111e-015
rhumerus -34.2149 -11.0823 -75.6557
rradius 33.5371
rwrist 4.63833
rhand -19.5248 7.47524
rfingers 7.12502
rthumb 6.79858 -22.3956
lclavicle -1.33285e-013 6.36111e-015
lhumerus -23.1872 -1.94345 80.3404
lradius 36.9439
lwrist 5.51279
lhand -24.4291 26.0481
lfingers 7.12502
lthumb 2.06295 56.0179
rfemur -22.0497 -3.16373 12.4998
rtibia 39.4925
rfoot -12.198 -6.60339
rtoes -0.735801
lfemur -2.20985 -4.26961 -26.7457
ltibia 23.8687
lfoot -11.3963 -1.83845
ltoes -0.411388
1031
root -4.60809 17.6518 12.19 -12.8738 -59.8588 7.92717
lowerback 15.8641 1.44788 -0.448276
upperback 2.34836 1.85886 1.41344
thorax -6.45039 0.899141 1.36636
lowerneck -24.0269 -5.42946 -11.4507
upperneck 23.6397 -5.82821 8.23964
head 12.4192 -2.58641 4.01324
rclavicle -1.20364e-013 2.78299e-014
rhumerus -34.3378 -10.4714 -75.7986
rradius 33.8462
rwrist 4.27097
rhand -19.449 7.38645
rfingers 7.12502
rthumb 6.87175 -22.482
lclavicle -1.20364e-013 2.78299e-014
lhumerus -23.4934 -1.34611 80.2992
lradius 36.221
lwrist 4.96658
lhand -24.3721 25.9981
lfingers 7.12502
lthumb 2.11796 55.9673
rfemur -21.7388 -3.01734 12.5124
rtibia 40.3164
rfoot -12.4328 -6.90473
rtoes 0.331013
lfemur -2.10436 -4.26818 -26.6334
ltibia 23.6577
lfoot -11.2231 -2.23473
ltoes 0.461992
